<svg width="136" height="90" viewBox="0 0 136 90" fill="none" xmlns="http://www.w3.org/2000/svg">
<g filter="url(#filter0_i_52_9)">
<path d="M17.9375 89.625H0V0H17.9375V44.8125L51.3125 0H71.6875L43.375 37.8125L71.6875 89.625H51.3125L31.625 53.375L17.9375 71.6875V89.625ZM135.048 62.75C135.048 66.4583 134.339 69.9375 132.923 73.1875C131.506 76.4375 129.568 79.2917 127.11 81.75C124.693 84.1667 121.86 86.0833 118.61 87.5C115.36 88.9167 111.881 89.625 108.173 89.625H63.36V0H108.173C111.881 0 115.36 0.708333 118.61 2.125C121.86 3.54167 124.693 5.47917 127.11 7.9375C129.568 10.3542 131.506 13.1875 132.923 16.4375C134.339 19.6875 135.048 23.1667 135.048 26.875C135.048 28.5417 134.818 30.25 134.36 32C133.902 33.75 133.256 35.4375 132.423 37.0625C131.589 38.6875 130.589 40.1667 129.423 41.5C128.256 42.8333 126.964 43.9375 125.548 44.8125C127.006 45.6042 128.318 46.6875 129.485 48.0625C130.652 49.3958 131.652 50.875 132.485 52.5C133.318 54.125 133.943 55.8333 134.36 57.625C134.818 59.375 135.048 61.0833 135.048 62.75ZM81.2975 71.6875H108.173C109.423 71.6875 110.589 71.4583 111.673 71C112.756 70.5417 113.693 69.9167 114.485 69.125C115.318 68.2917 115.964 67.3333 116.423 66.25C116.881 65.1667 117.11 64 117.11 62.75C117.11 61.5 116.881 60.3333 116.423 59.25C115.964 58.1667 115.318 57.2292 114.485 56.4375C113.693 55.6042 112.756 54.9583 111.673 54.5C110.589 54.0417 109.423 53.8125 108.173 53.8125H81.2975V71.6875ZM81.2975 35.875H108.173C109.423 35.875 110.589 35.6458 111.673 35.1875C112.756 34.7292 113.693 34.1042 114.485 33.3125C115.318 32.4792 115.964 31.5208 116.423 30.4375C116.881 29.3125 117.11 28.125 117.11 26.875C117.11 25.625 116.881 24.4583 116.423 23.375C115.964 22.2917 115.318 21.3542 114.485 20.5625C113.693 19.7292 112.756 19.0833 111.673 18.625C110.589 18.1667 109.423 17.9375 108.173 17.9375H81.2975V35.875Z" fill="white"/>
</g>
<defs>
<filter id="filter0_i_52_9" x="0" y="0" width="135.047" height="93.625" filterUnits="userSpaceOnUse" color-interpolation-filters="sRGB">
<feFlood flood-opacity="0" result="BackgroundImageFix"/>
<feBlend mode="normal" in="SourceGraphic" in2="BackgroundImageFix" result="shape"/>
<feColorMatrix in="SourceAlpha" type="matrix" values="0 0 0 0 0 0 0 0 0 0 0 0 0 0 0 0 0 0 127 0" result="hardAlpha"/>
<feOffset dy="4"/>
<feGaussianBlur stdDeviation="2"/>
<feComposite in2="hardAlpha" operator="arithmetic" k2="-1" k3="1"/>
<feColorMatrix type="matrix" values="0 0 0 0 0 0 0 0 0 0 0 0 0 0 0 0 0 0 0.25 0"/>
<feBlend mode="normal" in2="shape" result="effect1_innerShadow_52_9"/>
</filter>
</defs>
</svg>
